<svg xmlns="http://www.w3.org/2000/svg" width="68.48" height="68.48" viewBox="0 0 68.48 68.48"><g transform="translate(-605.546 -1439)"><circle cx="34.24" cy="34.24" r="34.24" transform="translate(605.546 1439)" fill="#f9f9f9"/><g transform="translate(599.231 1443.486)"><g transform="translate(21.315 17.934)"><g transform="translate(15.694 26.206)"><path d="M107.127,207.779h7.635v4.349h-7.635Z" transform="translate(-107.127 -207.779)" fill="#939598"/></g><g transform="translate(15.694 26.206)"><path d="M113.847,207.779v2.52a.915.915,0,0,1-.914.914h-5.806v.914h7.635v-4.349Z" transform="translate(-107.127 -207.779)" fill="#808285"/></g><g transform="translate(10.227 30.555)"><path d="M77.6,235.2H95.438a.366.366,0,0,0,.366-.366v-1.45a1.829,1.829,0,0,0-1.829-1.829H79.065a1.829,1.829,0,0,0-1.829,1.829v1.45A.366.366,0,0,0,77.6,235.2Z" transform="translate(-77.236 -231.558)" fill="#58595b"/></g><g transform="translate(10.227 30.718)"><path d="M94.727,232.449a1.82,1.82,0,0,1,.163.752v1.45a.366.366,0,0,1-.366.366H77.236v.549a.366.366,0,0,0,.366.366H95.438a.366.366,0,0,0,.366-.366v-1.45A1.828,1.828,0,0,0,94.727,232.449Z" transform="translate(-77.236 -232.449)" fill="#414042"/></g><g transform="translate(0 0)"><path d="M23.144,90.694H58.509a1.829,1.829,0,0,0,1.829-1.829V66.317a1.829,1.829,0,0,0-1.829-1.829H23.144a1.829,1.829,0,0,0-1.829,1.829V88.865a1.829,1.829,0,0,0,1.829,1.829Z" transform="translate(-21.315 -64.488)" fill="#58595b"/></g><g transform="translate(0.163 0.163)"><path d="M59.987,65.378a1.82,1.82,0,0,1,.163.752V88.678a1.829,1.829,0,0,1-1.829,1.829H22.957a1.82,1.82,0,0,1-.752-.163,1.828,1.828,0,0,0,1.666,1.077H59.236a1.829,1.829,0,0,0,1.829-1.829V67.044A1.828,1.828,0,0,0,59.987,65.378Z" transform="translate(-22.205 -65.378)" fill="#414042"/></g><g transform="translate(2.472 2.609)"><path d="M35.743,99.741H67.994a.915.915,0,0,0,.914-.914V79.667a.915.915,0,0,0-.914-.914H35.743a.915.915,0,0,0-.914.914V98.827A.914.914,0,0,0,35.743,99.741Z" transform="translate(-34.829 -78.753)" fill="#5e9cf7"/></g><g transform="translate(2.472 2.609)"><path d="M67.994,78.753V97.912a.915.915,0,0,1-.914.914H34.829a.915.915,0,0,0,.914.914H67.994a.915.915,0,0,0,.914-.914V79.667A.915.915,0,0,0,67.994,78.753Z" transform="translate(-34.829 -78.753)" fill="#478cf7"/></g></g><g transform="translate(27.338 7.514)"><g transform="translate(0 0)"><path d="M81.226,41.531H54.25V8.428a.915.915,0,0,1,.914-.914H80.311a.915.915,0,0,1,.914.914Z" transform="translate(-54.25 -7.514)" fill="#f1f2f2"/></g><g transform="translate(0.732 1.097)"><path d="M58.616,24.636a.366.366,0,0,1-.366-.366V15.492a.366.366,0,1,1,.732,0V24.27A.366.366,0,0,1,58.616,24.636Zm0-10.242a.366.366,0,0,1-.366-.366v-.15a.366.366,0,1,1,.732,0v.15A.366.366,0,0,1,58.616,14.395Z" transform="translate(-58.25 -13.513)" fill="#fff"/></g><g transform="translate(0 0)"><path d="M80.311,7.514H79.4V38.788a.915.915,0,0,1-.914.914H54.25v1.829H81.226V8.428a.914.914,0,0,0-.914-.914Z" transform="translate(-54.25 -7.514)" fill="#e6e7e8"/></g><g transform="translate(0 0)"><path d="M80.311,7.514V39.7a.915.915,0,0,1-.914.914H54.25v.914H81.226V8.428a.914.914,0,0,0-.914-.914Z" transform="translate(-54.25 -7.514)" fill="#d1d3d4"/></g><g transform="translate(4.709 30.937)"><path d="M97.191,177.4H80.366a.366.366,0,0,1,0-.732H97.191a.366.366,0,0,1,0,.732Z" transform="translate(-80 -176.673)" fill="#414042"/></g><g transform="translate(4.709 15.117)"><g transform="translate(12.672 0)"><path d="M149.287,90.539V102.7h3.37V90.539a.366.366,0,0,0-.366-.366h-2.638A.366.366,0,0,0,149.287,90.539Z" transform="translate(-149.287 -90.173)" fill="#76a34f"/></g><g transform="translate(12.672)"><path d="M152.291,90.173h-.549v10.7a.915.915,0,0,1-.914.914h-1.541v.914h3.37V90.539a.366.366,0,0,0-.366-.366Z" transform="translate(-149.287 -90.173)" fill="#648940"/></g><g transform="translate(1.516 7.753)"><path d="M88.288,132.934v4.408h3.37v-4.408a.366.366,0,0,0-.366-.366H88.654A.366.366,0,0,0,88.288,132.934Z" transform="translate(-88.288 -132.568)" fill="#e63950"/></g><g transform="translate(1.516 7.753)"><path d="M91.292,132.568h-.549v2.945a.915.915,0,0,1-.914.914H88.288v.914h3.37v-4.408A.366.366,0,0,0,91.292,132.568Z" transform="translate(-88.288 -132.568)" fill="#d10028"/></g><g transform="translate(7.094 3.503)"><path d="M118.788,109.695v8.659h3.37v-8.659a.366.366,0,0,0-.366-.366h-2.638A.366.366,0,0,0,118.788,109.695Z" transform="translate(-118.788 -109.329)" fill="#ffc91d"/></g><g transform="translate(7.094 3.503)"><path d="M121.791,109.329h-.549v7.2a.915.915,0,0,1-.914.914h-1.541v.914h3.37v-8.659A.366.366,0,0,0,121.791,109.329Z" transform="translate(-118.787 -109.329)" fill="#ffa91a"/></g><g transform="translate(0 12.162)"><path d="M97.191,157.4H80.366a.366.366,0,1,1,0-.732H97.191a.366.366,0,1,1,0,.732Z" transform="translate(-80 -156.673)" fill="#414042"/></g></g></g><g transform="translate(34.882 10.27)"><circle cx="5.944" cy="5.944" r="5.944" transform="translate(0 0)" fill="#893add"/></g><g transform="translate(36.192 11.579)"><path d="M111.014,29.742A5.942,5.942,0,0,1,102.66,38.1a5.943,5.943,0,1,0,8.354-8.354Z" transform="translate(-102.66 -29.742)" fill="#6c2bc1"/></g><g transform="translate(40.369 12.457)"><g transform="translate(0.091 1.616)"><path d="M126.366,49.638a.366.366,0,0,1-.366-.366V43.74a.366.366,0,1,1,.732,0v5.532A.366.366,0,0,1,126.366,49.638Z" transform="translate(-126 -43.374)" fill="#fff"/></g><circle cx="0.457" cy="0.457" r="0.457" fill="#fff"/></g></g></g></svg>