<svg xmlns="http://www.w3.org/2000/svg" width="86.723" height="86.661" viewBox="0 0 86.723 86.661">
  <g id="Grupo_914975" data-name="Grupo 914975" transform="translate(4984.992 6416.332)">
    <path id="Trazado_626545" data-name="Trazado 626545" d="M83.31.014A4.773,4.773,0,0,1,86.5,2.968,4.343,4.343,0,0,1,84.13,8.318a4.259,4.259,0,0,1-5.522-1.872,1.041,1.041,0,0,0-1.171-.659c-.725.054-1.665-.3-2.122.132s-.136,1.387-.142,2.111c-.019,2.5-1.053,3.541-3.55,3.543-1.044,0-2.088.017-3.132-.008-.429-.011-.59.1-.588.563q.026,5.207,0,10.413c0,.445.132.573.572.571,3.1-.017,6.207-.022,9.311,0,.486,0,.6-.278.778-.6a4.334,4.334,0,0,1,4.127-2.279,4.258,4.258,0,0,1,3.814,3.007,4.321,4.321,0,0,1-2.342,5.293,4.271,4.271,0,0,1-5.539-1.826,1.1,1.1,0,0,0-1.169-.666q-4.4.033-8.8,0c-.575-.006-.762.122-.756.732q.047,5.035,0,10.073c-.005.587.138.775.742.751,1.212-.048,2.426-.031,3.639-.005a2.862,2.862,0,0,1,2.877,2.832c.034.817.023,1.637,0,2.454-.009.356.085.525.469.486a3.865,3.865,0,0,1,.761,0,2.344,2.344,0,0,0,2.653-1.239,4.019,4.019,0,0,1,4.9-1.372,4.347,4.347,0,0,1-.585,8.289,4.21,4.21,0,0,1-4.69-2.049,1.226,1.226,0,0,0-1.374-.756c-.732.043-1.467.022-2.2,0a2.8,2.8,0,0,1-2.824-2.689c-.054-.815-.043-1.636-.017-2.454.015-.459-.1-.649-.6-.631-1.043.038-2.088.034-3.131,0-.473-.015-.629.118-.615.606.034,1.184.018,2.37.009,3.555a4.283,4.283,0,0,1-4.515,4.5c-5.078.015-10.157,0-15.236,0q-12.4,0-24.8,0A4.279,4.279,0,0,1,18.8,44.588c-.007-1.073-.057-2.149.017-3.216.053-.757-.177-.968-.919-.911a22.385,22.385,0,0,1-2.791.005c-.544-.027-.672.168-.647.674a22.283,22.283,0,0,1-.005,2.284,2.834,2.834,0,0,1-2.96,2.822c-.31.005-.622.019-.93,0a2.828,2.828,0,0,0-2.97,1.3C5.76,50.187,1.62,49.484.34,46.5c-.11-.256-.217-.513-.325-.77V43.868a4,4,0,0,1,3.35-3.526,4.443,4.443,0,0,1,4.742,1.869,2.621,2.621,0,0,0,2.822.854c.3-.119.336-.353.348-.611.024-.564,0-1.129.015-1.692a3.207,3.207,0,0,1,3.48-3.4c.959,0,1.918-.018,2.876.005.625.016.929-.182.925-.866q-.028-4.653,0-9.307c0-.605-.222-.868-.842-.865q-4.188.015-8.376,0a1.393,1.393,0,0,0-1.222.74A4.509,4.509,0,0,1,.7,27.355a4.99,4.99,0,0,1-.689-1.6v-2.2a4.067,4.067,0,0,1,3.548-3.466A4.3,4.3,0,0,1,8.1,22.032a1.6,1.6,0,0,0,1.464.775c2.651-.019,5.3,0,7.953-.01.98,0,1.045-.073,1.047-1.069q.007-4.442,0-8.884c0-1.005-.063-1.063-1.043-1.072-1.015-.01-2.031.011-3.045-.008A3.125,3.125,0,0,1,11.3,8.693c-.035-.647-.015-1.3-.013-1.946,0-.488-.208-.706-.7-.735A2.649,2.649,0,0,0,7.861,7.179,4.519,4.519,0,0,1,.546,6.925,5.643,5.643,0,0,1,.015,5.433V3.4A3.85,3.85,0,0,1,3.232.014H5.263A3.915,3.915,0,0,1,8.291,2.047,1.245,1.245,0,0,0,9.5,2.659c.677-.014,1.354-.025,2.031.005a3.043,3.043,0,0,1,3.11,3.2c.011.592.017,1.185,0,1.778s.278.79.834.776c.761-.021,1.524-.022,2.285,0,.573.017.82-.219.814-.8-.013-1.1-.02-2.2,0-3.3A4.583,4.583,0,0,1,20.537.567,5.766,5.766,0,0,1,22.193.014H64.518a4.273,4.273,0,0,1,3.623,4.642c0,.989.011,1.975,0,2.963-.008.579.241.814.814.8.761-.022,1.524-.028,2.285,0,.633.025.857-.26.835-.862s-.015-1.185,0-1.778A3.023,3.023,0,0,1,75.1,2.669c.7-.043,1.41-.023,2.115-.01a1.251,1.251,0,0,0,1.209-.611A4.043,4.043,0,0,1,81.278.014Z" transform="translate(-4984.998 -6416.337)"/>
    <path id="Trazado_626546" data-name="Trazado 626546" d="M22.348,82.857a1.534,1.534,0,0,1,1.22-2.039,17.194,17.194,0,0,1,8.68-.265c6.106,1.027,12.223,1.992,18.336,2.982,2.334.378,4.669.748,7,1.142a3.44,3.44,0,0,0,1.889-.174q5.07-1.962,10.163-3.865a7.108,7.108,0,0,1,7.507,1.255.725.725,0,0,0,1.022.071c.521-.332,1.067-.628,1.61-.924a4.6,4.6,0,0,1,6.14,1.37,4.538,4.538,0,0,1-1.089,6.251c-2.811,2.17-5.662,4.288-8.5,6.427-7.244,5.466-14.5,10.91-21.722,16.411a8.025,8.025,0,0,1-7.46,1.434c-9.567-2.63-19.153-5.188-28.726-7.794-.69-.188-1.065-.233-1.268.654a3.984,3.984,0,0,1-3.734,3.153c-3.155.154-6.319.157-9.473,0-2.123-.105-3.277-1.517-3.934-3.409V83.53a11.193,11.193,0,0,1,.541-1.21,4.254,4.254,0,0,1,3.9-2.222c2.812,0,5.625-.019,8.438.007a4.279,4.279,0,0,1,4.438,3.783c.388,4.305.1,8.619.182,12.929.025,1.326.035,2.653-.009,3.978-.024.732.238,1.011.967,1.174,3.358.754,6.658,1.736,9.98,2.633,6.536,1.764,13.075,3.514,19.6,5.327a4.985,4.985,0,0,0,4.671-.938q9.941-7.549,19.925-15.044c3.241-2.448,6.475-4.906,9.731-7.337a3.147,3.147,0,0,0,.951-.948,1.316,1.316,0,0,0-.039-1.439,1.287,1.287,0,0,0-1.22-.613,2.541,2.541,0,0,0-1.184.412Q74,87.921,67.1,91.8A5.1,5.1,0,0,0,65.59,93a4.683,4.683,0,0,1-3.265,1.758,3,3,0,0,0-1.182.426c-2.577,1.46-5.168,2.9-7.737,4.369a5.846,5.846,0,0,1-2.673.975,4.945,4.945,0,0,1-2.9-.742q-3.6-2.223-7.188-4.465a3.443,3.443,0,0,0-1.994-.564c-1.156.035-2.314.019-3.47.006-1.308-.014-2.136-.666-2.139-1.663s.828-1.668,2.131-1.669q12.864-.012,25.728-.005a5.239,5.239,0,0,0,1.265-.059,1.324,1.324,0,0,0,1.076-1.254,1.251,1.251,0,0,0-.836-1.408,3.5,3.5,0,0,0-.736-.193c-1.614-.266-3.226-.548-4.841-.8-5.154-.816-10.3-1.657-15.455-2.489-3.842-.62-7.682-1.258-11.53-1.842a11.106,11.106,0,0,0-4.939.316,2.859,2.859,0,0,1-1.243.206c-.627-.095-1.235-.244-1.317-1.042" transform="translate(-4984.998 -6442.961)"/>
    <path id="Trazado_626547" data-name="Trazado 626547" d="M113.408.014a5.235,5.235,0,0,0-2.931,2.7c-.1.269-.388.175-.6.176-.844.008-1.689-.005-2.534.005a2.84,2.84,0,0,0-2.955,2.822c-.041.786-.033,1.577-.008,2.364.014.426-.1.6-.559.587-1.069-.031-2.141-.038-3.209,0-.526.02-.585-.21-.576-.645.024-1.153.013-2.309.007-3.462A4.268,4.268,0,0,0,96.836.161a.707.707,0,0,1-.188-.147Z" transform="translate(-5017.128 -6416.337)" fill="#fff"/>
    <path id="Trazado_626548" data-name="Trazado 626548" d="M3.227.009C2.68.434,1.983.592,1.453,1.065A6.215,6.215,0,0,0,.01,3.4C.01,2.38.025,1.364,0,.349-.006.054.054-.007.349,0c.959.025,1.918.009,2.878.009" transform="translate(-4984.993 -6416.332)" fill="#fefdfe"/>
    <path id="Trazado_626549" data-name="Trazado 626549" d="M30.973,84.236c.717.919,1.08,1.058,2.176.691a14.594,14.594,0,0,1,7.188-.143c7.893,1.3,15.793,2.569,23.691,3.847,2.169.351,4.34.69,6.508,1.045a1.689,1.689,0,0,1,1.628,1.888c-.089.93-.782,1.475-1.922,1.475q-13.12,0-26.241,0c-.254,0-.509-.013-.761.009a1.479,1.479,0,0,0-1.382,1.446,1.433,1.433,0,0,0,1.4,1.416c1.467.035,2.934.033,4.4.013a2.48,2.48,0,0,1,1.426.394c2.456,1.545,4.934,3.057,7.391,4.6a4.43,4.43,0,0,0,4.871.121q4.229-2.392,8.463-4.777a2.547,2.547,0,0,1,1.1-.356,4.24,4.24,0,0,0,3.221-1.781,2.844,2.844,0,0,1,.92-.835Q82.312,89.2,89.553,85.1a2.135,2.135,0,0,1,1.606-.35,1.569,1.569,0,0,1,1.22,1.27,1.725,1.725,0,0,1-.8,1.817q-3.447,2.594-6.888,5.2Q73.04,101.821,61.4,110.62a5.017,5.017,0,0,1-4.669.935q-14.577-3.994-29.181-7.894c-1.578-.425-1.583-.4-1.583-2.058q-.005-8.168-.011-16.336c.294,1.012.3,1.019,1.329.577,1.234-.529,2.46-1.071,3.691-1.607" transform="translate(-4993.622 -6444.34)" fill="#ffcdac"/>
    <path id="Trazado_626550" data-name="Trazado 626550" d="M54.159,47.671q-9.861,0-19.722,0c-1.5,0-1.957-.468-1.957-1.982q0-19.683,0-39.365c0-1.516.467-2,1.949-2,2.934,0,5.869.019,8.8-.016.641-.007.8.176.8.805-.025,5.333-.009,10.666-.021,16a1.8,1.8,0,0,0,.8,1.822c.745.416,1.347.045,1.947-.364.838-.572,1.709-1.1,2.524-1.7a.8.8,0,0,1,1.111.015c.87.625,1.795,1.172,2.664,1.8a1.67,1.67,0,0,0,2.17.017c.9-.637,1.844-1.2,2.737-1.841A.753.753,0,0,1,59,20.851c.914.659,1.874,1.254,2.806,1.89a1.5,1.5,0,0,0,1.661.206,1.651,1.651,0,0,0,.822-1.64q-.008-6.518,0-13.037c0-1.1.015-2.2-.007-3.3-.009-.447.083-.656.6-.652,3.132.021,6.264,0,9.4.019a1.456,1.456,0,0,1,1.545,1.545c.01.2,0,.4,0,.593q0,19.555,0,39.111c0,1.667-.424,2.087-2.107,2.087H54.159" transform="translate(-4995.792 -6417.766)" fill="#c59266"/>
    <path id="Trazado_626551" data-name="Trazado 626551" d="M68.568,18.966c-.756-.5-1.364-.9-1.964-1.3a1.534,1.534,0,0,0-1.884.008c-.954.651-1.934,1.264-2.871,1.937a.755.755,0,0,1-1.038-.011c-.916-.655-1.875-1.25-2.8-1.888a1.6,1.6,0,0,0-2.029.008c-.565.4-1.155.775-1.729,1.157-.244-.246-.151-.483-.152-.691-.007-4.341.009-8.682-.019-13.023,0-.649.144-.856.83-.851,4.311.033,8.624.017,12.936.018.352,0,.733-.108.731.5-.017,4.646-.009,9.294-.009,14.135" transform="translate(-5002.975 -6417.765)" fill="#e5b791"/>
    <path id="Trazado_626552" data-name="Trazado 626552" d="M5.778,4.335A1.459,1.459,0,0,1,7.214,5.8,1.411,1.411,0,0,1,5.751,7.214a1.454,1.454,0,0,1-1.412-1.4A1.5,1.5,0,0,1,5.778,4.335" transform="translate(-4986.436 -6417.773)" fill="#4caa8e"/>
    <path id="Trazado_626553" data-name="Trazado 626553" d="M124.115,5.811a1.452,1.452,0,0,1-1.493,1.4,1.4,1.4,0,0,1-1.38-1.495,1.459,1.459,0,0,1,1.432-1.382,1.5,1.5,0,0,1,1.44,1.473" transform="translate(-5025.305 -6417.774)" fill="#4caa8e"/>
    <path id="Trazado_626554" data-name="Trazado 626554" d="M124.116,36.164a1.47,1.47,0,0,1-1.517,1.385,1.444,1.444,0,0,1-1.355-1.531,1.391,1.391,0,0,1,1.544-1.316,1.409,1.409,0,0,1,1.328,1.461" transform="translate(-5025.305 -6427.87)" fill="#4caa8e"/>
    <path id="Trazado_626555" data-name="Trazado 626555" d="M7.213,36.1a1.438,1.438,0,0,1-1.45,1.439A1.458,1.458,0,0,1,4.34,36.068a1.413,1.413,0,0,1,1.419-1.376A1.389,1.389,0,0,1,7.213,36.1" transform="translate(-4986.436 -6427.867)" fill="#4caa8e"/>
    <path id="Trazado_626556" data-name="Trazado 626556" d="M122.667,67.833a1.419,1.419,0,0,1-1.426-1.455,1.443,1.443,0,0,1,1.386-1.42,1.438,1.438,0,1,1,.041,2.876" transform="translate(-5025.305 -6437.93)" fill="#4caa8e"/>
    <path id="Trazado_626557" data-name="Trazado 626557" d="M5.8,64.955a1.439,1.439,0,0,1,.006,2.877A1.439,1.439,0,1,1,5.8,64.955" transform="translate(-4986.435 -6437.929)" fill="#4caa8f"/>
    <path id="Trazado_626558" data-name="Trazado 626558" d="M15.846,96.053q0,4.864,0,9.729c0,1.292-.435,1.731-1.714,1.732q-4.06.005-8.12,0c-1.191,0-1.679-.486-1.68-1.711q-.01-9.813,0-19.627a1.5,1.5,0,0,1,1.709-1.7q4.06-.005,8.121,0c1.228,0,1.683.453,1.684,1.677q.006,4.948,0,9.9" transform="translate(-4986.431 -6444.42)" fill="#434a51"/>
    <path id="Trazado_626559" data-name="Trazado 626559" d="M95.788,87.327c2.522-.947,4.845-1.858,7.2-2.685a4.008,4.008,0,0,1,3.619.534c-.018.222-.2.256-.332.332-2.518,1.426-5.042,2.841-7.549,4.283-.425.244-.633.3-.842-.244a4.538,4.538,0,0,0-2.094-2.219" transform="translate(-5016.842 -6444.402)" fill="#ddb190"/>
    <path id="Trazado_626560" data-name="Trazado 626560" d="M78.412,101.842c-1.751.975-3.3,1.856-4.873,2.7a1.258,1.258,0,0,1-1.291-.084c-1.363-.837-2.721-1.684-4.231-2.621Z" transform="translate(-5007.608 -6450.194)" fill="#ddb090"/>
    <path id="Trazado_626561" data-name="Trazado 626561" d="M59.874,54.8c0,1.232.011,2.322,0,3.412-.013,1.048-.525,1.65-1.384,1.671a1.5,1.5,0,0,1-1.506-1.671c-.023-1.085,0-2.169,0-3.379a5.33,5.33,0,0,1-.717.515,1.375,1.375,0,0,1-1.76-.326,1.265,1.265,0,0,1-.061-1.774c1-1.1,2.057-2.164,3.162-3.163.626-.566,1.321-.429,2.031.258q1.306,1.263,2.568,2.57a1.505,1.505,0,0,1,.2,2.119,1.472,1.472,0,0,1-2.169,0c-.065-.051-.138-.092-.358-.237" transform="translate(-5002.982 -6432.87)" fill="#2a2a2a"/>
    <path id="Trazado_626562" data-name="Trazado 626562" d="M42.562,54.793c0,1.176,0,2.185,0,3.195q-.006,1.894-1.416,1.9c-.944,0-1.469-.693-1.472-1.956,0-.986,0-1.972,0-2.968-.366-.058-.471.287-.718.39a1.412,1.412,0,0,1-1.772-.314,1.254,1.254,0,0,1-.077-1.774c1.012-1.1,2.067-2.161,3.165-3.173.6-.553,1.289-.443,1.962.206q1.37,1.322,2.692,2.693a1.453,1.453,0,0,1,.163,2.047,1.486,1.486,0,0,1-2.057.127c-.111-.079-.215-.171-.47-.374" transform="translate(-4997.22 -6432.87)" fill="#2a2a2a"/>
    <path id="Trazado_626563" data-name="Trazado 626563" d="M11.5,91.665c-.479,0-.961.028-1.438-.006a1.434,1.434,0,1,1,.071-2.867c.93-.013,1.862-.015,2.793,0A1.332,1.332,0,0,1,14.4,90.164a1.355,1.355,0,0,1-1.383,1.493c-.5.043-1.015.008-1.523.008" transform="translate(-4987.868 -6445.852)" fill="#2a2a2a"/>
    <path id="Trazado_626564" data-name="Trazado 626564" d="M11.532,113.232c-.479,0-.959.012-1.438,0a1.452,1.452,0,0,1-1.443-1.367,1.506,1.506,0,0,1,1.344-1.491,29.144,29.144,0,0,1,3.045,0,1.415,1.415,0,0,1,1.362,1.523,1.344,1.344,0,0,1-1.516,1.337c-.451.009-.9,0-1.354,0" transform="translate(-4987.868 -6453.017)" fill="#2a2a2a"/>
  </g>
</svg>
