<svg xmlns="http://www.w3.org/2000/svg" width="159.471" height="119.954" viewBox="0 0 159.471 119.954">
  <g id="Grupo_237823" data-name="Grupo 237823" transform="translate(0 -48.341)">
    <g id="Grupo_237824" data-name="Grupo 237824" transform="translate(0 48.341)">
      <path id="Trazado_147423" data-name="Trazado 147423" d="M0,168.551a3.7,3.7,0,0,1,3.318-1.509c7.322.051,14.645.021,21.967.03a5.557,5.557,0,0,1,1.535.16,2.12,2.12,0,0,1,1.632,2.479,2.068,2.068,0,0,1-2.025,2c-.877.078-1.764.042-2.646.042-6.751,0-13.5-.034-20.253.03A4.218,4.218,0,0,1,0,170.421Z" transform="translate(0 -117.63)" fill="#060606"/>
      <path id="Trazado_147424" data-name="Trazado 147424" d="M0,207.687a4.2,4.2,0,0,1,3.527-1.357c7.322.06,14.645.034,21.967.022,1.082,0,2.088.093,2.692,1.159.938,1.655-.189,3.46-2.278,3.514-2.439.064-4.882.017-7.322.017-5.089,0-10.179-.038-15.268.025A3.712,3.712,0,0,1,0,209.556Z" transform="translate(0 -140.563)" fill="#060606"/>
      <path id="Trazado_147425" data-name="Trazado 147425" d="M114.4,81.517l2.914-3.575a2.716,2.716,0,0,0,3.727-.644,54.6,54.6,0,0,1,34.907-17.452,48.372,48.372,0,0,1,18.622,1.319l1,.241.018-.022a18.867,18.867,0,0,0,2.122,1.388,57.644,57.644,0,0,1,32.72,55.425,58.348,58.348,0,0,1-3.513,16.9,57.35,57.35,0,0,1-29.761,32.037,10.632,10.632,0,0,0-1.573,1.1l-.014-.024-1.02.247a3.708,3.708,0,0,1-.569.228,55.861,55.861,0,0,1-30.222-1.543c-21.207-6.964-36.838-27.956-37.4-50.278a55.582,55.582,0,0,1,8.4-31.389c1.12-1.8,1.044-2.513-.353-3.961m91.617,32.994c1.91-.831,2.294-1.468,2.054-3.461-.179-1.494-.3-3-.576-4.476a46.568,46.568,0,0,0-54.041-37.607c-25.105,4.3-42.488,28.946-37.654,53.971,3.473,17.979,14.09,30.4,31.517,36.074,17.059,5.557,32.613,1.854,45.991-10.107a44.809,44.809,0,0,0,14.2-25.851c.464-2.463.114-3.192-1.814-3.961l.325-4.582" transform="translate(-62.072 -54.855)" fill="#73e8dc"/>
      <path id="Trazado_147426" data-name="Trazado 147426" d="M157.828,54.651a48.374,48.374,0,0,0-18.622-1.319A54.6,54.6,0,0,0,104.3,70.785a2.716,2.716,0,0,1-3.728.644c-1.1-1.755-1.139-2.536.421-3.942,3.307-2.981,6.736-5.827,10.118-8.726.26-.223.546-.416,1.161-.882H110.42q-14.642,0-29.284,0c-.519,0-1.179.168-1.527-.083a4.884,4.884,0,0,1-1.85-1.962,1.874,1.874,0,0,1,1.406-2.414A5.959,5.959,0,0,1,81,53.208q19.393-.017,38.786-.027a7.259,7.259,0,0,0,2.566-.429c23.8-9.244,48.911-3.781,66.354,14.7a57.558,57.558,0,0,1,15.9,35.808A59.971,59.971,0,0,1,122.9,164.1a10.4,10.4,0,0,0-3.6-.676c-12.773-.048-25.546-.027-38.319-.038a5.826,5.826,0,0,1-1.832-.219,1.875,1.875,0,0,1-1.384-2.427,4.66,4.66,0,0,1,1.869-1.939c.4-.268,1.111-.084,1.682-.085,10.169,0,20.338,0,30.8,0a9.8,9.8,0,0,0-.853-.795c-14.136-9.888-22.858-23.293-25.589-40.33a58.6,58.6,0,0,1,8.478-41.272c.866-1.4,1.934-1.961,3.512-1.319,1.4,1.449,1.473,2.156.353,3.961a55.586,55.586,0,0,0-8.4,31.389c.564,22.322,16.2,43.314,37.4,50.278a55.862,55.862,0,0,0,30.222,1.543,3.725,3.725,0,0,0,.569-.228l1.02-.247.014.024c.453-.1.913-.186,1.36-.313a52.324,52.324,0,0,0,21.67-12.087c14.5-13.565,20.484-30.293,17.542-49.925-2-13.326-8.475-24.376-18.7-33.158a52.144,52.144,0,0,0-21.869-11.368l-.018.023-1-.242" transform="translate(-45.325 -48.341)" fill="#030404"/>
      <path id="Trazado_147427" data-name="Trazado 147427" d="M38.079,105.813c-3.94,0-7.879.01-11.818,0-1.71-.006-2.742-.865-2.782-2.251-.041-1.424,1.064-2.413,2.818-2.416q11.818-.022,23.637,0c1.8,0,2.846.916,2.834,2.375-.012,1.479-1.007,2.291-2.87,2.3-3.94.01-7.879,0-11.818,0" transform="translate(-13.704 -79.155)" fill="#040404"/>
      <path id="Trazado_147428" data-name="Trazado 147428" d="M38.164,272.364c3.94,0,7.879-.009,11.818,0,1.774.006,2.73.793,2.776,2.227.048,1.471-.994,2.437-2.765,2.441q-11.9.026-23.792,0a2.436,2.436,0,0,1-2.732-2.352c0-1.394,1.035-2.306,2.721-2.313,3.992-.017,7.983-.005,11.974-.005" transform="translate(-13.699 -179.106)" fill="#040404"/>
      <path id="Trazado_147429" data-name="Trazado 147429" d="M64.322,144.052c-1.505,0-3.011.036-4.515-.007a2.248,2.248,0,0,1-2.466-2.235,2.3,2.3,0,0,1,2.471-2.416q4.747-.077,9.5,0a2.357,2.357,0,0,1,2.425,2.338,2.333,2.333,0,0,1-2.43,2.3c-1.66.051-3.321.012-4.982.014" transform="translate(-33.47 -101.467)" fill="#060606"/>
      <path id="Trazado_147430" data-name="Trazado 147430" d="M64.52,234.083c1.557,0,3.115-.032,4.671.009a2.333,2.333,0,1,1,.072,4.653q-4.748.079-9.5,0a2.294,2.294,0,0,1-2.425-2.46,2.253,2.253,0,0,1,2.508-2.19c1.556-.039,3.114-.009,4.671-.009" transform="translate(-33.469 -156.757)" fill="#060606"/>
      <path id="Trazado_147431" data-name="Trazado 147431" d="M217.836,131.385c1.928.77,2.278,1.5,1.814,3.961a44.809,44.809,0,0,1-14.2,25.851c-13.378,11.961-28.932,15.665-45.991,10.107-17.427-5.678-28.044-18.1-31.517-36.074-4.834-25.025,12.549-49.672,37.654-53.971a46.569,46.569,0,0,1,54.041,37.607c.277,1.476.4,2.982.576,4.476.239,1.993-.144,2.63-2.054,3.461-1.717-.2-2.473-1.158-2.6-2.9a39.656,39.656,0,0,0-4.624-16.17C205.108,97,196.388,89.838,184.511,86.66a39.7,39.7,0,0,0-19.241-.6c-17.135,3.5-29.924,17.1-32.969,34.918-2.741,16.04,5.3,33.265,19.759,41.937a40.71,40.71,0,0,0,32.451,4.636,1.023,1.023,0,0,0,.307,0c16.63-5.223,26.821-16.282,30.257-33.439.394-1.968.854-2.484,2.762-2.725" transform="translate(-74.212 -67.147)" fill="#030403"/>
      <path id="Trazado_147432" data-name="Trazado 147432" d="M272.693,64.027A52.147,52.147,0,0,1,294.562,75.4c10.224,8.781,16.7,19.832,18.7,33.158,2.942,19.632-3.045,36.36-17.542,49.925a52.321,52.321,0,0,1-21.67,12.087c-.447.128-.906.209-1.36.313a10.659,10.659,0,0,1,1.573-1.1,57.351,57.351,0,0,0,29.761-32.037,58.351,58.351,0,0,0,3.514-16.9,57.645,57.645,0,0,0-32.72-55.425,18.812,18.812,0,0,1-2.122-1.388" transform="translate(-159.175 -57.497)" fill="#73e8dc" opacity="0.52"/>
      <path id="Trazado_147433" data-name="Trazado 147433" d="M264.965,95.217c11.878,3.177,20.6,10.344,26.425,21.077a39.658,39.658,0,0,1,4.624,16.17c.129,1.737.885,2.693,2.6,2.9l-.325,4.582c-1.907.242-2.367.757-2.762,2.726-3.437,17.157-13.628,28.215-30.257,33.439a1.037,1.037,0,0,1-.307,0,4.751,4.751,0,0,1,.615-.587c3.264-2.17,6.782-4.037,9.754-6.551a42.434,42.434,0,0,0,13.247-20.456,37.639,37.639,0,0,0,1.837-11.873q0-.982,0-1.964c-.271-2.553-.338-5.149-.846-7.654a43.132,43.132,0,0,0-20.222-29.064l-4.384-2.741" transform="translate(-154.667 -75.704)" fill="#d7eef1"/>
      <path id="Trazado_147434" data-name="Trazado 147434" d="M270.259,63.5l1,.242-1-.242" transform="translate(-157.757 -57.19)" fill="#77bfa2"/>
      <path id="Trazado_147435" data-name="Trazado 147435" d="M271.224,320.655l-1.02.247,1.02-.247" transform="translate(-157.725 -207.297)" fill="#77bfa2"/>
      <path id="Trazado_147436" data-name="Trazado 147436" d="M191.007,93.115l4.384,2.741a43.132,43.132,0,0,1,20.222,29.064c.509,2.505.576,5.1.847,7.654-.661-.438-1.279-1.144-1.99-1.254a17.93,17.93,0,0,0-4.013-.033,2.282,2.282,0,0,0-.139,4.519,33.512,33.512,0,0,0,3.4.119,2.864,2.864,0,0,0,2.745-1.387,37.651,37.651,0,0,1-1.836,11.873,42.438,42.438,0,0,1-13.247,20.456c-2.972,2.514-6.49,4.381-9.754,6.551a4.72,4.72,0,0,0-.614.587,40.713,40.713,0,0,1-32.452-4.636c-14.454-8.671-22.5-25.9-19.759-41.937,3.045-17.819,15.834-31.419,32.969-34.918a39.7,39.7,0,0,1,19.242.6m-8.4,38.122c0-5.737.006-11.282,0-16.827,0-1.8-.906-2.893-2.331-2.893s-2.337,1.1-2.339,2.89q-.014,9.259,0,18.518c0,2.115.786,2.956,2.875,2.983q4.59.059,9.181,0c1.788-.02,2.879-.978,2.857-2.384-.022-1.427-1.082-2.272-2.925-2.285-2.385-.015-4.77,0-7.314,0m-34.52.015v.008a18.53,18.53,0,0,0-2.018.013,2.135,2.135,0,0,0-2.1,2.253,2.026,2.026,0,0,0,1.884,2.266,23.322,23.322,0,0,0,4.333.016,2.045,2.045,0,0,0,1.939-2.368,2.126,2.126,0,0,0-2.173-2.179c-.617-.054-1.243-.009-1.864-.009m58.777-21.971c-.487-.592-.894-1.519-1.563-1.782a2.975,2.975,0,0,0-2.412.268,15.882,15.882,0,0,0-2.88,2.816,2.092,2.092,0,0,0,.144,3.076,2.14,2.14,0,0,0,3.09.166,27.08,27.08,0,0,0,2.854-2.857,7.268,7.268,0,0,0,.766-1.687m-.149,48.684c-.117-.667-.073-1.007-.221-1.161a30.416,30.416,0,0,0-3.977-3.826c-.461-.327-1.876.225-2.537.764a1.816,1.816,0,0,0-.057,2.67,17.49,17.49,0,0,0,3.1,3.024,2.921,2.921,0,0,0,2.417.109c.621-.263.967-1.173,1.272-1.581m-45.509-45.625c-.149-.607-.13-.934-.284-1.093a30.743,30.743,0,0,0-3.973-3.816c-.465-.331-2.038.159-2.482.744a2.854,2.854,0,0,0-.06,2.639,11.144,11.144,0,0,0,3.05,3.055,2.934,2.934,0,0,0,2.425.1c.626-.266.979-1.175,1.325-1.633m-5.294,47.722c.563-.146.889-.132,1.049-.288a35.391,35.391,0,0,0,3.929-4.064c.309-.416-.185-1.964-.75-2.354a2.907,2.907,0,0,0-2.643-.118,12.393,12.393,0,0,0-3.17,3.154,2.679,2.679,0,0,0-.063,2.284c.3.636,1.165,1.006,1.647,1.387M182.6,101.352c0-.623.04-1.248-.008-1.867a2.356,2.356,0,0,0-2.312-2.275,2.33,2.33,0,0,0-2.328,2.257,33.771,33.771,0,0,0,0,3.735,2.34,2.34,0,0,0,2.311,2.276,2.364,2.364,0,0,0,2.329-2.258c.051-.619.009-1.245.01-1.867m-.015,64.487h.01a18.813,18.813,0,0,0-.013-2.022,2.2,2.2,0,0,0-2.249-2.144,2.129,2.129,0,0,0-2.351,2.014,20.869,20.869,0,0,0,0,4.2,2.13,2.13,0,0,0,2.372,1.989,2.172,2.172,0,0,0,2.21-2.012,14.22,14.22,0,0,0,.017-2.021" transform="translate(-80.709 -73.602)" fill="#f2f9fd"/>
      <path id="Trazado_147437" data-name="Trazado 147437" d="M314.829,190.029a2.865,2.865,0,0,1-2.745,1.387,33.511,33.511,0,0,1-3.4-.118,2.282,2.282,0,0,1,.139-4.519,17.954,17.954,0,0,1,4.013.032c.711.11,1.33.817,1.99,1.254Z" transform="translate(-179.079 -129.094)" fill="#070707"/>
      <path id="Trazado_147438" data-name="Trazado 147438" d="M238.222,159.144c2.544,0,4.929-.012,7.314,0,1.843.012,2.9.857,2.925,2.285.022,1.406-1.069,2.364-2.857,2.384q-4.59.052-9.181,0c-2.09-.027-2.873-.868-2.876-2.983q-.012-9.259,0-18.518c0-1.79.915-2.89,2.339-2.89s2.328,1.1,2.331,2.893c.009,5.545,0,11.09,0,16.827" transform="translate(-136.324 -101.509)" fill="#040404"/>
      <path id="Trazado_147439" data-name="Trazado 147439" d="M156.085,186.806c.622,0,1.247-.045,1.864.009a2.126,2.126,0,0,1,2.173,2.179,2.045,2.045,0,0,1-1.939,2.368,23.284,23.284,0,0,1-4.333-.016,2.026,2.026,0,0,1-1.884-2.266,2.135,2.135,0,0,1,2.1-2.253,18.53,18.53,0,0,1,2.018-.013v-.008" transform="translate(-88.706 -129.156)" fill="#070808"/>
      <path id="Trazado_147440" data-name="Trazado 147440" d="M292.6,131.351a7.25,7.25,0,0,1-.766,1.687,27.079,27.079,0,0,1-2.854,2.857,2.139,2.139,0,0,1-3.09-.166,2.091,2.091,0,0,1-.144-3.076,15.842,15.842,0,0,1,2.88-2.816,2.972,2.972,0,0,1,2.412-.268c.669.263,1.077,1.19,1.563,1.782" transform="translate(-166.442 -95.672)" fill="#080809"/>
      <path id="Trazado_147441" data-name="Trazado 147441" d="M292.4,243.872c-.3.408-.651,1.318-1.272,1.581a2.92,2.92,0,0,1-2.416-.109,17.492,17.492,0,0,1-3.1-3.024,1.816,1.816,0,0,1,.057-2.67c.661-.539,2.076-1.091,2.537-.764a30.364,30.364,0,0,1,3.977,3.826c.149.153.1.494.221,1.161" transform="translate(-166.392 -159.509)" fill="#080809"/>
      <path id="Trazado_147442" data-name="Trazado 147442" d="M183.431,134.367c-.347.459-.7,1.368-1.325,1.634a2.934,2.934,0,0,1-2.425-.1,11.162,11.162,0,0,1-3.05-3.056,2.855,2.855,0,0,1,.061-2.639c.443-.585,2.016-1.074,2.482-.743a30.66,30.66,0,0,1,3.973,3.816c.154.159.135.486.285,1.092" transform="translate(-102.933 -95.629)" fill="#080809"/>
      <path id="Trazado_147443" data-name="Trazado 147443" d="M178.038,246.1c-.483-.38-1.351-.75-1.647-1.386a2.682,2.682,0,0,1,.062-2.284,12.4,12.4,0,0,1,3.17-3.154,2.908,2.908,0,0,1,2.643.118c.565.39,1.059,1.937.75,2.354a35.467,35.467,0,0,1-3.929,4.065c-.161.156-.487.142-1.049.287" transform="translate(-102.834 -159.641)" fill="#080809"/>
      <path id="Trazado_147444" data-name="Trazado 147444" d="M238.179,109.2c0,.623.041,1.249-.01,1.867a2.364,2.364,0,0,1-2.329,2.258,2.34,2.34,0,0,1-2.311-2.276,33.764,33.764,0,0,1,0-3.735,2.33,2.33,0,0,1,2.329-2.257,2.356,2.356,0,0,1,2.312,2.275c.048.619.008,1.245.007,1.867" transform="translate(-136.287 -81.445)" fill="#060607"/>
      <path id="Trazado_147445" data-name="Trazado 147445" d="M238.138,264.074a14.218,14.218,0,0,1-.017,2.021,2.172,2.172,0,0,1-2.21,2.012,2.13,2.13,0,0,1-2.372-1.989,20.871,20.871,0,0,1,0-4.2,2.129,2.129,0,0,1,2.351-2.014,2.2,2.2,0,0,1,2.249,2.144,18.816,18.816,0,0,1,.013,2.022h-.01" transform="translate(-136.26 -171.837)" fill="#060606"/>
    </g>
  </g>
</svg>
