<svg xmlns="http://www.w3.org/2000/svg" width="155.694" height="118.021" viewBox="0 0 155.694 118.021">
  <g id="Grupo_914913" data-name="Grupo 914913" transform="translate(-1203.997 -4103.085)">
    <path id="Trazado_626461" data-name="Trazado 626461" d="M3.149,85.591q0-22.443,0-44.884c0-5.543,3.672-9.232,9.191-9.233q41.036,0,82.073,0c5.455,0,9.161,3.681,9.171,9.1.006,4.08.037,8.161-.023,12.241-.015,1.022.254,1.289,1.281,1.284,9.363-.041,18.727,0,28.09-.049a3.523,3.523,0,0,1,3.351,1.776q10.824,16.947,21.741,33.834a4.848,4.848,0,0,1,.818,2.775q-.038,19.381-.017,38.763c0,2.474-.77,3.228-3.288,3.23-2.772,0-5.545.023-8.317-.014-.806-.011-1.135.166-1.314,1.065a17.569,17.569,0,0,1-34.42-.042c-.216-1.1-.772-1.013-1.515-1.013q-13.967.008-27.933,0c-9.991,0-19.982.011-29.973-.016-.969,0-1.382.146-1.608,1.276a17.583,17.583,0,0,1-34.378-.147c-.192-.992-.571-1.138-1.42-1.127-2.772.039-5.544.018-8.317.014-2.406,0-3.19-.779-3.191-3.166q0-22.834,0-45.669" transform="translate(1200.849 4071.613)" fill="#040506"/>
    <path id="Trazado_626462" data-name="Trazado 626462" d="M54.438,100.457c-14.539,0-29.079-.018-43.618.033-1.274.006-1.5-.376-1.495-1.548Q9.38,70.7,9.352,42.453c0-3.356,1.407-4.772,4.745-4.772q40.48,0,80.961,0c3.243,0,4.684,1.438,4.684,4.677q.006,28.323.036,56.644c0,1.3-.422,1.481-1.565,1.479q-21.888-.055-43.775-.024" transform="translate(1199.669 4070.427)" fill="#fff"/>
    <path id="Trazado_626463" data-name="Trazado 626463" d="M54.69,121.487c14.486,0,28.972.017,43.457-.031,1.26,0,1.648.227,1.633,1.577-.078,7.426-.054,14.853-.016,22.279,0,.971-.175,1.315-1.251,1.312q-22.671-.059-45.34,0c-1.06,0-1.328-.32-1.543-1.352-1.7-8.154-9-13.8-17.621-13.735a17.494,17.494,0,0,0-16.762,14c-.174.891-.489,1.1-1.306,1.075q-2.822-.07-5.647,0c-.756.02-.963-.207-.96-.961.027-7.74.042-15.48-.01-23.221-.009-1.3.8-.937,1.437-.938q16-.018,32-.009Z" transform="translate(1199.668 4054.42)" fill="#fff"/>
    <path id="Trazado_626464" data-name="Trazado 626464" d="M157.606,68.114c-6.7,0-13.13,0-19.556,0-2.419,0-3.211.774-3.212,3.142q0,13.182,0,26.366c0,2.358.8,3.134,3.224,3.134,12.659,0,25.317.022,37.976-.03,1.242,0,1.542.324,1.515,1.534-.078,3.519-.023,3.507-3.575,3.526a11.91,11.91,0,0,0-3.727.3A7.663,7.663,0,0,0,165,114.5a7.573,7.573,0,0,0,7.439,6.34c1.36.011,2.724.058,4.079-.018.865-.049,1.025.278,1.019,1.063-.034,4.341-.042,8.684.006,13.025.01.869-.29,1.035-1.069,1.014-1.83-.049-3.663-.061-5.492,0-.912.032-1.189-.248-1.374-1.181a17.583,17.583,0,0,0-34.41.1c-.175.891-.489,1.1-1.306,1.075-1.83-.049-3.663-.063-5.491.006-.893.033-1.134-.239-1.12-1.124.051-3.347.02-6.7.02-10.044q0-28.8-.033-57.6c0-1.312.313-1.611,1.61-1.6,8.473.066,16.95.121,25.421-.032,1.961-.035,2.388,1.154,3.305,2.576" transform="translate(1177.132 4065.105)" fill="#fff"/>
    <path id="Trazado_626465" data-name="Trazado 626465" d="M178.355,97.526h-6.018c-9.408,0-18.815-.013-28.222.019-.961,0-1.327-.156-1.319-1.243q.086-10.113,0-20.227c-.008-1.025.323-1.175,1.235-1.17,6.219.039,12.439.029,18.658.009a1.671,1.671,0,0,1,1.672.8c4.587,7.2,9.216,14.378,13.992,21.808" transform="translate(1174.165 4063.315)" fill="#fff"/>
    <path id="Trazado_626466" data-name="Trazado 626466" d="M37.331,165.228a12.553,12.553,0,1,1,12.649-12.5,12.691,12.691,0,0,1-12.649,12.5" transform="translate(1196.696 4050.852)" fill="#fff"/>
    <path id="Trazado_626467" data-name="Trazado 626467" d="M167.934,152.631a12.549,12.549,0,1,1-12.469-12.508,12.707,12.707,0,0,1,12.469,12.508" transform="translate(1174.157 4050.852)" fill="#fff"/>
    <path id="Trazado_626468" data-name="Trazado 626468" d="M184.8,121.5c2.817-.007,2.817-.007,2.817,2.808,0,2.208,0,2.208-2.174,2.208-.938,0-1.88.048-2.813-.019a2.493,2.493,0,1,1-.019-4.986c.725-.06,1.458-.011,2.188-.011" transform="translate(1167.036 4054.414)" fill="#fff"/>
    <path id="Trazado_626469" data-name="Trazado 626469" d="M93.147,132.726c-3.19,0-6.38.011-9.57,0-1.815-.008-2.864-.988-2.824-2.586.038-1.514,1.071-2.425,2.823-2.428q9.728-.015,19.454,0c1.818,0,2.867.986,2.826,2.583-.039,1.512-1.076,2.423-2.826,2.431-3.295.014-6.589,0-9.884,0" transform="translate(1186.021 4053.226)" fill="#040506"/>
    <path id="Trazado_626470" data-name="Trazado 626470" d="M102.469,142.033c-1.255,0-2.511.037-3.764-.01a2.5,2.5,0,0,1,0-5q3.843-.067,7.686,0a2.5,2.5,0,0,1,0,5c-1.306.047-2.614.01-3.921.01" transform="translate(1183.054 4051.45)" fill="#050506"/>
    <path id="Trazado_626471" data-name="Trazado 626471" d="M142.9,115.286c1.255,0,2.511-.029,3.764.007a2.5,2.5,0,1,1-.009,5q-3.764.057-7.529,0a2.5,2.5,0,1,1,.01-5c1.253-.036,2.509-.007,3.764-.007" transform="translate(1175.344 4055.6)" fill="#050506"/>
    <path id="Trazado_626472" data-name="Trazado 626472" d="M46.15,153.848a7.531,7.531,0,1,1-7.541-7.516,7.463,7.463,0,0,1,7.541,7.516" transform="translate(1195.51 4049.666)" fill="#040506"/>
    <path id="Trazado_626473" data-name="Trazado 626473" d="M156.658,146.332a7.531,7.531,0,1,1-7.614,7.448,7.452,7.452,0,0,1,7.614-7.448" transform="translate(1172.971 4049.666)" fill="#040506"/>
    <path id="Trazado_626474" data-name="Trazado 626474" d="M39.738,152.548a2.5,2.5,0,1,1-2.432,2.567,2.653,2.653,0,0,1,2.432-2.567" transform="translate(1194.323 4048.478)" fill="#fefefe"/>
    <path id="Trazado_626475" data-name="Trazado 626475" d="M157.68,157.548a2.5,2.5,0,1,1,2.575-2.423,2.648,2.648,0,0,1-2.575,2.423" transform="translate(1171.783 4048.478)" fill="#fefefe"/>
  </g>
</svg>
