<svg xmlns="http://www.w3.org/2000/svg" xmlns:xlink="http://www.w3.org/1999/xlink" width="1320" height="506.835" viewBox="0 0 1320 506.835"><defs><linearGradient id="a" x1="0.822" y1="0.238" x2="0.15" y2="1" gradientUnits="objectBoundingBox"><stop offset="0" stop-color="#675892"/><stop offset="1" stop-color="#46327a"/></linearGradient><clipPath id="b"><path d="M20.787,0H1299.213C1310.693,0,1320,8.4,1320,18.772V488.063c0,10.367-9.307,18.772-20.787,18.772H20.787C9.307,506.835,0,498.431,0,488.063V18.772C0,8.4,9.307,0,20.787,0Z" fill="none"/></clipPath></defs><g transform="translate(-144.333 -70)"><path d="M1299.213,0H20.787C9.307,0,0,8.4,0,18.772V488.063c0,10.367,9.307,18.772,20.787,18.772H1299.213c11.48,0,20.787-8.4,20.787-18.772V18.772C1320,8.4,1310.693,0,1299.213,0Z" transform="translate(144.333 70)" fill="url(#a)"/><g transform="translate(144.333 70)" clip-path="url(#b)"><g transform="translate(1421.653 781.694) rotate(172)"><path d="M15.112,287.169c17.715-34.453,50.7-57.089,87.588-67.785,43.738-12.681,85.825-5.917,129.709.813,40.462,6.207,85.463,7.935,119.6-18.36C405,161.023,410.064,81.949,458.584,36.195A134.306,134.306,0,0,1,548.268.007c36.475-.4,82.633,15.473,101.287,49.128,18.115,32.679-.243,65.219,6.189,98.672,12.581,65.429,102.934,61.541,146.591,94.017,20.859,15.518,34.9,38.672,44.514,62.826,10.673,26.809,16.486,56.674,9.26,84.61-11.967,46.276-56.921,63.6-100.7,65.261-32.532,1.236-64.873-7.137-94.749-20.072-26.423-11.44-51.276-26.449-78.3-36.386-66.738-24.537-132.48,6.775-190.061,40.442-73.917,43.219-150.259,84.882-238.635,70.014C86.133,497.156,16.049,455.615,2.8,383.4c-5.607-30.549-3.007-62.946,9.88-91.206Q13.841,289.641,15.112,287.169Z" transform="translate(564.713 766.841)" fill="#fff" opacity="0.17" style="mix-blend-mode:overlay;isolation:isolate"/><path d="M632.125,127.541c-3.382,29.741-20.932,54.914-44.53,72.432-27.977,20.768-60.041,26.955-93.386,33.637-30.745,6.161-63.537,16.779-80.927,44.921-26.994,43.68-9.185,102.547-31.628,148.641a101.5,101.5,0,0,1-54.6,50c-26.09,9.918-63.548,10.548-86.073-9.015-21.874-19-17.512-47.516-31.2-70.159-26.779-44.284-90.623-17.612-130.787-29.721-19.192-5.785-35.553-18.927-49.011-33.962C15.04,317.622,2.765,297.427.379,275.194c-3.952-36.827,23.638-61.292,54.633-74.055,23.031-9.484,48.532-11.927,73.5-10.4,22.081,1.35,44,5.713,66.108,5.811,54.59.241,93.319-39.89,125.547-79.58C361.536,66.018,405.07,15.559,472.58,3.055,524.167-6.5,585.771,5.23,614.875,54.275c12.311,20.747,19.231,45.005,17.637,68.967Q632.368,125.406,632.125,127.541Z" transform="translate(0 507.532)" fill="#5b4794" opacity="0.15" style="mix-blend-mode:color-burn;isolation:isolate"/><path d="M892.845,180.145c-4.776,42.007-29.565,77.564-62.9,102.306-39.516,29.334-84.8,38.072-131.9,47.51-43.426,8.7-89.743,23.7-114.306,63.449-38.127,61.7-12.973,144.842-44.672,209.948a143.37,143.37,0,0,1-77.125,70.617c-36.851,14.008-89.759,14.9-121.574-12.733-30.9-26.831-24.735-67.114-44.074-99.1-37.824-62.548-128-24.876-184.729-41.979-27.108-8.172-50.216-26.733-69.225-47.97-21.1-23.572-38.434-52.1-41.8-83.5C-5.048,336.68,33.923,302.126,77.7,284.1c32.53-13.4,68.548-16.846,103.812-14.69,31.188,1.907,62.152,8.069,93.374,8.207,77.105.341,131.809-56.342,177.328-112.4,58.436-71.967,119.926-143.237,215.28-160.9C740.358-9.18,827.372,7.387,868.479,76.66c17.389,29.3,27.163,63.568,24.911,97.412Q893.188,177.13,892.845,180.145Z" transform="matrix(-0.966, -0.259, 0.259, -0.966, 884.249, 676.393)" fill="#5b4794" opacity="0.15" style="mix-blend-mode:color-burn;isolation:isolate"/><path d="M892.845,180.145c-4.776,42.007-29.565,77.564-62.9,102.306-39.516,29.334-84.8,38.072-131.9,47.51-43.426,8.7-89.743,23.7-114.306,63.449-38.127,61.7-12.973,144.842-44.672,209.948a143.37,143.37,0,0,1-77.125,70.617c-36.851,14.008-89.759,14.9-121.574-12.733-30.9-26.831-24.735-67.114-44.074-99.1-37.824-62.548-128-24.876-184.729-41.979-27.108-8.172-50.216-26.733-69.225-47.97-21.1-23.572-38.434-52.1-41.8-83.5C-5.048,336.68,33.923,302.126,77.7,284.1c32.53-13.4,68.548-16.846,103.812-14.69,31.188,1.907,62.152,8.069,93.374,8.207,77.105.341,131.809-56.342,177.328-112.4,58.436-71.967,119.926-143.237,215.28-160.9C740.358-9.18,827.372,7.387,868.479,76.66c17.389,29.3,27.163,63.568,24.911,97.412Q893.188,177.13,892.845,180.145Z" transform="matrix(-0.848, -0.53, 0.53, -0.848, 778.799, 745.849)" fill="#5b4794" opacity="0.15" style="mix-blend-mode:color-burn;isolation:isolate"/><path d="M892.845,180.145c-4.776,42.007-29.565,77.564-62.9,102.306-39.516,29.334-84.8,38.072-131.9,47.51-43.426,8.7-89.743,23.7-114.306,63.449-38.127,61.7-12.973,144.842-44.672,209.948a143.37,143.37,0,0,1-77.125,70.617c-36.851,14.008-89.759,14.9-121.574-12.733-30.9-26.831-24.735-67.114-44.074-99.1-37.824-62.548-128-24.876-184.729-41.979-27.108-8.172-50.216-26.733-69.225-47.97-21.1-23.572-38.434-52.1-41.8-83.5C-5.048,336.68,33.923,302.126,77.7,284.1c32.53-13.4,68.548-16.846,103.812-14.69,31.188,1.907,62.152,8.069,93.374,8.207,77.105.341,131.809-56.342,177.328-112.4,58.436-71.967,119.926-143.237,215.28-160.9C740.358-9.18,827.372,7.387,868.479,76.66c17.389,29.3,27.163,63.568,24.911,97.412Q893.188,177.13,892.845,180.145Z" transform="matrix(-0.951, -0.309, 0.309, -0.951, 1385.585, 1274.875)" fill="#5b4794" opacity="0.15" style="mix-blend-mode:color-burn;isolation:isolate"/><circle cx="24.819" cy="24.819" r="24.819" transform="translate(583.612 746.202)" fill="#524480" opacity="0.23" style="mix-blend-mode:color-dodge;isolation:isolate"/><ellipse cx="12.41" cy="12.41" rx="12.41" ry="12.41" transform="translate(568.854 828.418) rotate(99.217)" fill="#fff" opacity="0.17" style="mix-blend-mode:overlay;isolation:isolate"/><ellipse cx="12.41" cy="12.41" rx="12.41" ry="12.41" transform="translate(579.813 484.305) rotate(100.476)" fill="#fff" opacity="0.17" style="mix-blend-mode:overlay;isolation:isolate"/><circle cx="24.819" cy="24.819" r="24.819" transform="translate(582.531 416.117)" fill="#fff" opacity="0.17" style="mix-blend-mode:overlay;isolation:isolate"/><path d="M62.631,0A62.631,62.631,0,1,1,0,62.631,62.631,62.631,0,0,1,62.631,0Z" transform="translate(1197.28 574.039) rotate(97.033)" fill="#5b4794" opacity="0.15" style="mix-blend-mode:color-dodge;isolation:isolate"/><ellipse cx="62.631" cy="62.631" rx="62.631" ry="62.631" transform="translate(292.839 772.152) rotate(97.065)" fill="#fff" opacity="0.17" style="mix-blend-mode:overlay;isolation:isolate"/><rect width="942.874" height="628.582" transform="translate(222.43 318.341)" fill="none"/></g></g></g></svg>