<svg xmlns="http://www.w3.org/2000/svg" xmlns:xlink="http://www.w3.org/1999/xlink" width="178.304" height="178.303" viewBox="0 0 178.304 178.303">
  <defs>
    <filter id="Trazado_150709" x="0" y="0" width="178.304" height="178.303" filterUnits="userSpaceOnUse">
      <feOffset dx="5" dy="5" input="SourceAlpha"/>
      <feGaussianBlur stdDeviation="12.5" result="blur"/>
      <feFlood flood-opacity="0.161"/>
      <feComposite operator="in" in2="blur"/>
      <feComposite in="SourceGraphic"/>
    </filter>
    <clipPath id="clip-path">
      <rect id="Rectángulo_341542" data-name="Rectángulo 341542" width="61.634" height="82.192" fill="none"/>
    </clipPath>
  </defs>
  <g id="Grupo_914960" data-name="Grupo 914960" transform="translate(-301.968 -1301.187)">
    <path id="Trazado_150708" data-name="Trazado 150708" d="M266.781,60.19A65.629,65.629,0,1,1,195.934.23a65.63,65.63,0,0,1,70.847,59.96" transform="translate(320.488 1586.716) rotate(-90)" fill="#5b4794"/>
    <g transform="matrix(1, 0, 0, 1, 301.97, 1301.19)" filter="url(#Trazado_150709)">
      <path id="Trazado_150709-2" data-name="Trazado 150709" d="M252.248,60.747A51.649,51.649,0,1,1,196.492,13.56a51.649,51.649,0,0,1,55.755,47.188" transform="translate(19.12 284.93) rotate(-90)" fill="#fff"/>
    </g>
    <g id="Grupo_914959" data-name="Grupo 914959" transform="translate(355.305 1347.798)">
      <g id="Grupo_914958" data-name="Grupo 914958" clip-path="url(#clip-path)">
        <path id="Trazado_626534" data-name="Trazado 626534" d="M3.883,14.651c-.711-.679-.8-1.089-.316-1.885A25.99,25.99,0,0,1,20.819.479,12.75,12.75,0,0,0,23.274,0H28.25a39.437,39.437,0,0,0,4.007.083H36.8c.359-.039.73.085,1.078-.083h.161c1.19.215,2.386.4,3.567.652A26.191,26.191,0,0,1,61.183,20.961,26,26,0,0,1,44.789,50.083a1.348,1.348,0,0,0-1.019,1.489,16.525,16.525,0,0,1-.186,4.157,8,8,0,0,1-7.892,6.353q-4.855.066-9.711,0a7.888,7.888,0,0,1-8.029-7.272,20.153,20.153,0,0,1,1.3-10.29,16.62,16.62,0,0,1,9.6-9.21,9.946,9.946,0,0,0,2.416-17.76.762.762,0,0,0-.985.095,10.058,10.058,0,0,0-4.443,8.43,7.725,7.725,0,0,1-4.7,7.061,7.527,7.527,0,0,1-3.331.719c-3.264.008-6.528.028-9.792,0A8.01,8.01,0,0,1,0,25.713a26.05,26.05,0,0,1,1-7.028c.255-.926.655-1.187,1.635-1.143a1.192,1.192,0,0,1,.972,1.609,27.656,27.656,0,0,0-.744,3.693,16.665,16.665,0,0,0-.217,3.273,5.348,5.348,0,0,0,4.792,5.024,32.243,32.243,0,0,0,4.145.113,7.746,7.746,0,0,0-.733-1.223C9.582,28,9.585,25.745,9.791,23.5A25.558,25.558,0,0,1,15.9,9.016a25.358,25.358,0,0,1,8.138-6.391c-.145-.019-.249.08-.375.091A23.63,23.63,0,0,0,5.974,13.894a2.815,2.815,0,0,1-.463.649,1.169,1.169,0,0,1-1.627.107" transform="translate(0)" fill="#040506"/>
        <path id="Trazado_626535" data-name="Trazado 626535" d="M5.473,16.276c1,.256,1.306.132,1.85-.751A23.464,23.464,0,0,1,22.488,4.6a15.267,15.267,0,0,1,2.845-.428c.225-.026.49-.213.619.153A25.578,25.578,0,0,0,12.045,22.2a17.62,17.62,0,0,0-.356,6.916,8.213,8.213,0,0,0,2.043,3.928c-2.08-.067-4.03.281-5.917-.319-2.584-.821-4-3.21-3.784-6.26a22.683,22.683,0,0,1,.912-5.433,1.4,1.4,0,0,0-.72-1.87l1.249-2.891" transform="translate(-1.59 -1.625)" fill="#eb6436"/>
        <path id="Trazado_626536" data-name="Trazado 626536" d="M48.989,124.3c-.13,1.015-.479,1.33-1.51,1.331-3.368,0-6.736.017-10.1,0a8,8,0,0,1-1.055-15.9,12.3,12.3,0,0,1,1.833-.132c3.021,0,6.041,0,9.062,0a8,8,0,0,1,8.266,7.8,7.683,7.683,0,0,1-1.76,5.266c-.532.671-1.03.713-1.895.218-.582-.25-.505-.748-.447-1.227a1.687,1.687,0,0,1,.375-.785,5.4,5.4,0,0,0-2.346-8.24A5.362,5.362,0,1,0,47.216,123a3.089,3.089,0,0,1,.872.1c.535.214,1.045.465.9,1.2" transform="translate(-11.726 -43.445)" fill="#040506"/>
        <path id="Trazado_626537" data-name="Trazado 626537" d="M57.089,125.905a1.355,1.355,0,0,0-1.526-1.088,5.573,5.573,0,0,1-1.351-10.969,4.757,4.757,0,0,1,3.346.219,6.579,6.579,0,0,0,.288,10.613c.243.182.694.278.5.765l-1.257.459" transform="translate(-19.827 -45.052)" fill="#ffb330"/>
        <path id="Trazado_626538" data-name="Trazado 626538" d="M61.5,125.72c-.422-.657-1.138-.993-1.67-1.54a6.821,6.821,0,0,1,.063-9.427,1,1,0,0,1,.819-.411,5.532,5.532,0,0,1,2.5,8.473,1.482,1.482,0,0,0-.133,1.949,8.993,8.993,0,0,1-1.581.957" transform="translate(-22.981 -45.325)" fill="#ffc545"/>
        <path id="Trazado_626539" data-name="Trazado 626539" d="M52.4,16.346a15.724,15.724,0,0,0-4.135-1.158,12.363,12.363,0,0,0-13.689,12.1,5.442,5.442,0,0,1-3.634,5.3.826.826,0,0,1-.858-.294,5.81,5.81,0,0,1-1.97-4.079A23.564,23.564,0,0,1,33.042,12.5a24.421,24.421,0,0,1,9.966-7.827,9.83,9.83,0,0,1,1.671-.509,20.884,20.884,0,0,1,11.329,1.7c7.7,3.416,12.468,9.307,13.97,17.588a23.372,23.372,0,0,1-14.57,25.806c-2.343.911-2.952,1.8-2.973,4.327a12.271,12.271,0,0,1-.207,3.585,5.226,5.226,0,0,1-3.48,3.665c-.44.14-.71-.139-.966-.412a6.349,6.349,0,0,1-1.826-4.1,27.136,27.136,0,0,1,.257-6.633,15.792,15.792,0,0,1,3.839-7.637,16.965,16.965,0,0,1,6.521-4.387,10.608,10.608,0,0,0,7.047-8.635,10.254,10.254,0,0,0-2.731-8.949,10.671,10.671,0,0,0-7.565-3.535,2.285,2.285,0,0,1-.927-.208" transform="translate(-11.133 -1.581)" fill="#ffc545"/>
        <path id="Trazado_626540" data-name="Trazado 626540" d="M43.281,70.031c-1.753,0-3.335.085-4.9-.021a5.226,5.226,0,0,1-4.615-4.457c-.272-3.355-.32-6.726,1.187-9.9a14.06,14.06,0,0,1,7.858-7.479,12.711,12.711,0,0,0,7.781-7.241,12.138,12.138,0,0,0-2.853-13.476c-.227-.22-.457-.437-.772-.738A8.147,8.147,0,0,1,50.9,26.6c4.363.917,7.693,4.47,8.013,8.481A9.955,9.955,0,0,1,52.35,45.672,16.65,16.65,0,0,0,41.341,59.024a19.433,19.433,0,0,0,.077,7.647,7.866,7.866,0,0,0,1.863,3.359" transform="translate(-13.325 -10.472)" fill="#eb6436"/>
        <path id="Trazado_626541" data-name="Trazado 626541" d="M61.053,24.459A10.757,10.757,0,0,1,70.5,29.038a10.546,10.546,0,0,1,1.316,10.6c-1.362,3.539-4.115,5.558-7.585,6.822a14.2,14.2,0,0,0-5.88,4.43,15.773,15.773,0,0,0-3.573,10.424c.059,1.67-.221,3.371.486,4.978a4.59,4.59,0,0,0,2.139,2.66,5.405,5.405,0,0,1-7.239-4.01,17.78,17.78,0,0,1,1.044-9.822,14.132,14.132,0,0,1,8.214-7.845,12.438,12.438,0,0,0,7.418-6.852,12.253,12.253,0,0,0-5.248-15.632c-.182-.106-.36-.222-.54-.333" transform="translate(-19.788 -9.694)" fill="#ffb330"/>
        <path id="Trazado_626542" data-name="Trazado 626542" d="M41.656,4.279a28.735,28.735,0,0,0-6.81,3.779A24.638,24.638,0,0,0,26.9,18.567a22.421,22.421,0,0,0-1.592,9.84,4.957,4.957,0,0,0,2.607,4.3,5.492,5.492,0,0,1-7.455-4.93A23.4,23.4,0,0,1,34.648,6.039a20.556,20.556,0,0,1,7.008-1.76" transform="translate(-8.11 -1.696)" fill="#ffb330"/>
        <path id="Trazado_626543" data-name="Trazado 626543" d="M39.957,4.276c-.165-.219-.424-.054-.619-.153a1.039,1.039,0,0,1,.668-.139c.1-.007.237,0,.2.135-.019.069-.162.106-.248.157" transform="translate(-15.594 -1.578)" fill="#82371c"/>
        <path id="Trazado_626544" data-name="Trazado 626544" d="M43.318,113.62a8.25,8.25,0,0,0,.054,11.228c-2.477-.21-4.9.491-7.1-.886a5.617,5.617,0,0,1-2.491-5.957,5.5,5.5,0,0,1,4.787-4.3c1.536-.176,3.076-.035,4.754-.089" transform="translate(-13.334 -45.04)" fill="#eb6436"/>
      </g>
    </g>
  </g>
</svg>
